<svg xmlns="http://www.w3.org/2000/svg" viewBox="0 0 107.5 95"><title>SPRITES_0</title><g id="Layer_2" data-name="Layer 2"><polygon points="25 22.5 40 22.5 41.25 25 42.5 25 43.75 22.5 50 22.5 51.25 25 53.75 25 53.75 22.5 78.75 22.5 78.75 48.75 77.5 48.75 77.5 53.75 78.75 53.75 78.75 76.25 60 76.25 60 73.75 57.5 73.75 57.5 76.25 25 76.25 25 22.5" fill="#666"/><rect x="27.5" y="25" width="48.75" height="48.75" fill="#7d7d7d"/><rect x="28.75" y="26.25" width="46.25" height="46.25" fill="#8a8a8a"/><polygon points="32.5 28.75 35 31.25 42.5 31.25 42.5 28.75 32.5 28.75" fill="#616161"/><rect x="43.75" y="31.25" width="2.5" height="1.25" fill="#616161"/><polygon points="53.75 28.75 55 30 70 30 70 45 72.5 45 72.5 28.75 53.75 28.75" fill="#616161"/><polygon points="35 32.5 35 66.25 36.25 67.5 68.75 67.5 68.75 66.25 68.75 33.75 67.5 32.5 47.5 32.5 47.5 33.75 40 33.75 40 32.5 35 32.5" fill="#6e6e6e"/><polygon points="40 35 40 37.5 42.5 37.5 42.5 45 46.25 45 46.25 35 40 35" fill="#858585"/><polygon points="36.25 41.25 36.25 65 40 65 40 62.5 43.75 62.5 43.75 51.25 46.25 51.25 46.25 48.75 40 48.75 40 41.25 36.25 41.25" fill="#858585"/><polygon points="46.25 55 46.25 62.5 53.75 62.5 53.75 60 50 60 50 55 46.25 55" fill="#858585"/><polygon points="57.5 51.25 57.5 57.5 63.75 57.5 63.75 61.25 57.5 61.25 57.5 65 66.25 65 66.25 55 60 55 60 51.25 57.5 51.25" fill="#858585"/><polygon points="57.5 43.75 67.5 43.75 67.5 33.75 50 33.75 50 37.5 57.5 37.5 57.5 43.75" fill="#858585"/></g></svg>