<svg xmlns="http://www.w3.org/2000/svg" viewBox="0 0 117.5 113.75"><title>SPRITES_0</title><g id="Layer_2" data-name="Layer 2"><rect x="42.5" y="6.25" width="35" height="103.75" fill="#828282" stroke="#6e6e6e" stroke-miterlimit="10" stroke-width="0.27"/><rect x="45" y="11.25" width="28.75" height="93.75" fill="#737373" stroke="#949494" stroke-miterlimit="10" stroke-width="0.27"/><polygon points="71.25 66.25 47.5 66.25 47.5 51.25 47.5 16.25 71.25 16.25 71.25 66.25" fill="#8a8a8a"/><polygon points="48.75 50 47.5 51.25 47.5 66.25 71.25 66.25 71.25 51.25 70 50 48.75 50" fill="#b0b0b0"/><rect x="52.5" y="18.75" width="15" height="8.75" fill="#b0b0b0"/><rect x="71.25" y="17.5" width="5" height="1.25" fill="#9e9e9e"/><rect x="71.25" y="20" width="5" height="1.25" fill="#9e9e9e"/><rect x="71.25" y="22.5" width="5" height="1.25" fill="#9e9e9e"/><rect x="71.25" y="25" width="5" height="1.25" fill="#9e9e9e"/><rect x="43.75" y="17.5" width="3.75" height="1.25" fill="#9e9e9e"/><rect x="43.75" y="20" width="3.75" height="1.25" fill="#9e9e9e"/><rect x="43.75" y="22.5" width="3.75" height="1.25" fill="#9e9e9e"/><rect x="43.75" y="25" width="3.75" height="1.25" fill="#9e9e9e"/><rect x="71.25" y="53.75" width="5" height="1.25" fill="#9e9e9e"/><rect x="71.25" y="56.25" width="5" height="1.25" fill="#9e9e9e"/><rect x="71.25" y="58.75" width="5" height="1.25" fill="#9e9e9e"/><rect x="71.25" y="61.25" width="5" height="1.25" fill="#9e9e9e"/><rect x="43.75" y="53.75" width="3.75" height="1.25" fill="#9e9e9e"/><rect x="43.75" y="56.25" width="3.75" height="1.25" fill="#9e9e9e"/><rect x="43.75" y="58.75" width="3.75" height="1.25" fill="#9e9e9e"/><rect x="43.75" y="61.25" width="3.75" height="1.25" fill="#9e9e9e"/><rect x="72.5" y="71.25" width="3.75" height="1.25" fill="#9e9e9e"/><rect x="72.5" y="75" width="3.75" height="1.25" fill="#9e9e9e"/><rect x="72.5" y="78.75" width="3.75" height="1.25" fill="#9e9e9e"/><rect x="72.5" y="82.5" width="3.75" height="1.25" fill="#9e9e9e"/><rect x="72.5" y="86.25" width="3.75" height="1.25" fill="#9e9e9e"/><rect x="72.5" y="90" width="3.75" height="1.25" fill="#9e9e9e"/><rect x="43.75" y="71.25" width="3.75" height="1.25" fill="#9e9e9e"/><rect x="43.75" y="75" width="3.75" height="1.25" fill="#9e9e9e"/><rect x="43.75" y="78.75" width="3.75" height="1.25" fill="#9e9e9e"/><rect x="43.75" y="82.5" width="3.75" height="1.25" fill="#9e9e9e"/><rect x="43.75" y="86.25" width="3.75" height="1.25" fill="#9e9e9e"/><rect x="43.75" y="90" width="3.75" height="1.25" fill="#9e9e9e"/><rect x="50" y="67.5" width="20" height="35" fill="#7d7d7d"/><rect x="51.25" y="68.75" width="2.5" height="1.25" fill="#5c5c5c" stroke="#8a8a8a" stroke-miterlimit="10" stroke-width="0.19"/><rect x="56.25" y="68.75" width="2.5" height="1.25" fill="#5c5c5c" stroke="#8a8a8a" stroke-miterlimit="10" stroke-width="0.19"/><rect x="61.25" y="68.75" width="2.5" height="1.25" fill="#5c5c5c" stroke="#8a8a8a" stroke-miterlimit="10" stroke-width="0.19"/><rect x="66.25" y="68.75" width="2.5" height="1.25" fill="#5c5c5c" stroke="#8a8a8a" stroke-miterlimit="10" stroke-width="0.19"/><rect x="51.25" y="100" width="2.5" height="3.75" fill="#828282" stroke="#7a7a7a" stroke-miterlimit="10" stroke-width="0.33"/><rect x="56.25" y="100" width="2.5" height="3.75" fill="#828282" stroke="#7a7a7a" stroke-miterlimit="10" stroke-width="0.33"/><rect x="61.25" y="100" width="2.5" height="3.75" fill="#828282" stroke="#7a7a7a" stroke-miterlimit="10" stroke-width="0.33"/><rect x="66.25" y="100" width="2.5" height="3.75" fill="#828282" stroke="#7a7a7a" stroke-miterlimit="10" stroke-width="0.33"/><rect x="51.25" y="71.25" width="2.5" height="27.5" fill="#5c5c5c"/><rect x="56.25" y="71.25" width="2.5" height="27.5" fill="#5c5c5c"/><rect x="61.25" y="71.25" width="2.5" height="27.5" fill="#5c5c5c"/><rect x="66.25" y="71.25" width="2.5" height="27.5" fill="#5c5c5c"/></g></svg>