<svg xmlns="http://www.w3.org/2000/svg" viewBox="0 0 120 107.5"><title>SPRITES_0</title><g id="Layer_2" data-name="Layer 2"><polygon points="50 23.75 47.5 26.25 47.5 40 50 42.5 53.75 42.5 53.75 52.5 71.25 52.5 71.25 42.5 75 42.5 77.5 40 76.25 40 76.25 26.25 77.5 26.25 73.75 23.75 50 23.75" fill="#6e6e6e"/><rect x="58.75" y="45" width="1.25" height="7.5" fill="#828282" stroke="#696969" stroke-miterlimit="10" stroke-width="0.27"/><rect x="65" y="45" width="1.25" height="7.5" fill="#828282" stroke="#696969" stroke-miterlimit="10" stroke-width="0.27"/><circle cx="63.12" cy="35.63" r="9.37" fill="#545454" stroke="#4d4d4d" stroke-miterlimit="10" stroke-width="0.31"/><circle cx="63.13" cy="35.63" r="8.13" fill="#757575" stroke="#4d4d4d" stroke-miterlimit="10" stroke-width="0.27"/><rect x="37.5" y="52.5" width="55" height="22.5" fill="gray" stroke="#707070" stroke-miterlimit="10" stroke-width="0.27"/><rect x="80" y="50" width="1.25" height="10" fill="#8f8f8f"/><rect x="80" y="50" width="1.25" height="10" fill="#8f8f8f"/><rect x="82.5" y="50" width="1.25" height="10" fill="#8f8f8f"/><rect x="85" y="50" width="1.25" height="10" fill="#8f8f8f"/><rect x="87.5" y="50" width="1.25" height="10" fill="#8f8f8f"/><rect x="90" y="50" width="1.25" height="10" fill="#8f8f8f"/><rect x="80" y="60" width="11.25" height="7.5" fill="#9c9c9c"/><rect x="83.75" y="62.5" width="3.75" height="2.5" fill="#7a7a7a" stroke="#636363" stroke-miterlimit="10" stroke-width="0.27"/><rect x="55" y="63.75" width="21.25" height="2.5" fill="#7a7a7a" stroke="#636363" stroke-miterlimit="10" stroke-width="0.27"/><rect x="58.75" y="58.75" width="13.75" height="3.75" fill="#7a7a7a" stroke="#636363" stroke-miterlimit="10" stroke-width="0.27"/><rect x="63.75" y="70" width="10" height="1.25" fill="#7a7a7a" stroke="#636363" stroke-miterlimit="10" stroke-width="0.27"/><polygon points="37.5 58.75 32.5 58.75 32.5 60 31.25 60 31.25 58.75 23.75 58.75 23.75 72.5 31.25 72.5 31.25 71.25 32.5 71.25 32.5 72.5 36.25 72.5 37.5 73.75 37.5 58.75" fill="#7d7d7d"/><rect x="31.25" y="60" width="1.25" height="11.25" fill="#5c5c5c"/><line x1="51.25" y1="37.5" x2="51.25" y2="42.5" fill="none" stroke="#474747" stroke-miterlimit="10" stroke-width="0.27"/><line x1="73.75" y1="36.25" x2="73.75" y2="42.5" fill="none" stroke="#474747" stroke-miterlimit="10" stroke-width="0.27"/><polygon points="81.25 75 81.25 77.5 41.25 77.5 37.5 75 81.25 75" fill="#666"/></g></svg>