<svg xmlns="http://www.w3.org/2000/svg" viewBox="0 0 121.25 111.25"><title>SPRITES_0</title><g id="Layer_2" data-name="Layer 2"><polygon points="50 16.25 52.5 16.25 55 12.5 57.5 12.5 62.5 12.5 65 16.25 67.5 16.25 67.5 23.75 68.75 23.75 73.75 30 73.75 51.25 68.75 56.25 68.75 58.75 66.25 58.75 66.25 62.5 50 62.5 50 57.5 48.75 57.5 47.5 56.25 46.25 56.25 42.5 51.25 42.5 30 48.75 22.5 50 22.5 50 16.25" fill="#7a7a7a"/><rect x="47.5" y="58.75" width="21.25" height="31.25" fill="#757575"/><line x1="51.25" y1="62.5" x2="51.25" y2="88.75" fill="#5c5c5c" stroke="#5e5e5e" stroke-miterlimit="10" stroke-width="0.5"/><line x1="52.5" y1="62.5" x2="52.5" y2="88.75" fill="#5c5c5c" stroke="#5e5e5e" stroke-miterlimit="10" stroke-width="0.5"/><line x1="53.75" y1="62.5" x2="53.75" y2="88.75" fill="#5c5c5c" stroke="#5e5e5e" stroke-miterlimit="10" stroke-width="0.5"/><line x1="56.25" y1="62.5" x2="56.25" y2="88.75" fill="#5c5c5c" stroke="#5e5e5e" stroke-miterlimit="10" stroke-width="0.5"/><line x1="57.5" y1="62.5" x2="57.5" y2="88.75" fill="#5c5c5c" stroke="#5e5e5e" stroke-miterlimit="10" stroke-width="0.5"/><line x1="58.75" y1="62.5" x2="58.75" y2="88.75" fill="#5c5c5c" stroke="#5e5e5e" stroke-miterlimit="10" stroke-width="0.5"/><line x1="61.25" y1="62.5" x2="61.25" y2="88.75" fill="#5c5c5c" stroke="#5e5e5e" stroke-miterlimit="10" stroke-width="0.5"/><line x1="62.5" y1="62.5" x2="62.5" y2="88.75" fill="#5c5c5c" stroke="#5e5e5e" stroke-miterlimit="10" stroke-width="0.5"/><line x1="63.75" y1="62.5" x2="63.75" y2="88.75" fill="#5c5c5c" stroke="#5e5e5e" stroke-miterlimit="10" stroke-width="0.5"/><rect x="50" y="38.75" width="6.25" height="5" fill="none" stroke="#454545" stroke-miterlimit="10" stroke-width="0.5"/><line x1="57.5" y1="21.25" x2="57.5" y2="12.5" stroke="#454545" stroke-miterlimit="10" stroke-width="0.5"/><line x1="60" y1="21.25" x2="60" y2="12.5" stroke="#454545" stroke-miterlimit="10" stroke-width="0.5"/><line x1="58.75" y1="25" x2="58.75" y2="22.5" stroke="#454545" stroke-miterlimit="10" stroke-width="1.41"/><polyline points="50 57.5 50 56.25 46.25 51.25 46.25 31.25 50 26.25 67.5 26.25 71.25 31.25 71.25 51.25 67.5 56.25 67.5 58.75 68.75 58.75" fill="none" stroke="#666" stroke-miterlimit="10" stroke-width="0.5"/><polyline points="52.5 56.25 50 53.75 50 52.5 67.5 52.5 67.5 53.75 65 56.25" fill="none" stroke="#666" stroke-miterlimit="10" stroke-width="0.5"/><line x1="53.75" y1="33.75" x2="63.75" y2="33.75" fill="none" stroke="#666" stroke-miterlimit="10" stroke-width="0.25"/><line x1="55" y1="48.75" x2="63.75" y2="48.75" fill="none" stroke="#666" stroke-miterlimit="10" stroke-width="0.25"/></g></svg>