<svg xmlns="http://www.w3.org/2000/svg" viewBox="0 0 106.25 106.25"><title>SPRITES_0</title><g id="Layer_2" data-name="Layer 2"><polygon points="15 65 13.75 66.25 13.75 83.75 17.5 86.25 25 86.25 25 82.5 37.5 82.5 38.75 83.75 71.25 83.75 72.5 82.5 91.25 82.5 91.25 75 92.5 75 92.5 72.5 90 72.5 90 37.5 92.5 37.5 92.5 35 91.25 35 91.25 28.75 88.75 26.25 83.75 26.25 82.5 27.5 82.5 30 81.25 31.25 68.75 31.25 67.5 30 67.5 27.5 70 27.5 71.25 26.25 71.25 23.75 70 22.5 66.25 22.5 66.25 23.75 55 23.75 55 41.25 23.75 41.25 18.75 46.25 18.75 63.75 17.5 65 15 65" fill="#666"/><rect x="18.75" y="68.75" width="2.5" height="1.25" fill="#454545" stroke="#404040" stroke-miterlimit="10" stroke-width="0.27"/><rect x="18.75" y="71.25" width="2.5" height="1.25" fill="#454545" stroke="#404040" stroke-miterlimit="10" stroke-width="0.27"/><rect x="18.75" y="73.75" width="2.5" height="1.25" fill="#454545" stroke="#404040" stroke-miterlimit="10" stroke-width="0.27"/><rect x="18.75" y="76.25" width="2.5" height="1.25" fill="#454545" stroke="#404040" stroke-miterlimit="10" stroke-width="0.27"/><line x1="18.75" y1="70" x2="13.75" y2="70" fill="#454545" stroke="#404040" stroke-miterlimit="10" stroke-width="0.27"/><line x1="18.75" y1="72.5" x2="13.75" y2="72.5" fill="#454545" stroke="#404040" stroke-miterlimit="10" stroke-width="0.27"/><line x1="18.75" y1="75" x2="13.75" y2="75" fill="#454545" stroke="#404040" stroke-miterlimit="10" stroke-width="0.27"/><line x1="18.75" y1="77.5" x2="13.75" y2="77.5" fill="#454545" stroke="#404040" stroke-miterlimit="10" stroke-width="0.27"/><circle cx="21.25" cy="48.75" r="1.25" fill="none" stroke="gray" stroke-miterlimit="10" stroke-width="0.27"/><circle cx="21.25" cy="52.5" r="1.25" fill="none" stroke="gray" stroke-miterlimit="10" stroke-width="0.27"/><circle cx="21.25" cy="56.25" r="1.25" fill="none" stroke="gray" stroke-miterlimit="10" stroke-width="0.27"/><circle cx="21.25" cy="60" r="1.25" fill="none" stroke="gray" stroke-miterlimit="10" stroke-width="0.27"/><rect x="25" y="43.75" width="60" height="1.25" fill="#4a4a4a"/><rect x="25" y="46.25" width="60" height="1.25" fill="#4a4a4a"/><rect x="25" y="48.75" width="60" height="1.25" fill="#4a4a4a"/><rect x="25" y="51.25" width="60" height="1.25" fill="#4a4a4a"/><rect x="25" y="53.75" width="60" height="1.25" fill="#4a4a4a"/><rect x="25" y="56.25" width="60" height="1.25" fill="#4a4a4a"/><rect x="25" y="58.75" width="60" height="1.25" fill="#4a4a4a"/><rect x="25" y="61.25" width="60" height="1.25" fill="#4a4a4a"/><rect x="25" y="63.75" width="60" height="1.25" fill="#4a4a4a"/><rect x="25" y="66.25" width="60" height="1.25" fill="#4a4a4a"/><rect x="25" y="68.75" width="60" height="1.25" fill="#4a4a4a"/><rect x="25" y="71.25" width="60" height="1.25" fill="#4a4a4a"/><rect x="25" y="73.75" width="60" height="1.25" fill="#4a4a4a"/><rect x="25" y="76.25" width="60" height="1.25" fill="#4a4a4a"/><rect x="25" y="78.75" width="60" height="1.25" fill="#4a4a4a"/><rect x="87.5" y="78.75" width="2.5" height="2.5" fill="#3b3b3b"/><rect x="61.25" y="35" width="31.25" height="2.5" fill="#6b6b6b" stroke="gray" stroke-miterlimit="10" stroke-width="0.27"/><polyline points="55 31.25 66.25 31.25 67.5 30" fill="none" stroke="gray" stroke-miterlimit="10" stroke-width="0.27"/><rect x="88.75" y="52.5" width="2.5" height="1.25" fill="#787878"/><rect x="88.75" y="56.25" width="2.5" height="1.25" fill="#787878"/><rect x="88.75" y="60" width="2.5" height="1.25" fill="#787878"/><rect x="88.75" y="63.75" width="2.5" height="1.25" fill="#787878"/><rect x="88.75" y="67.5" width="2.5" height="1.25" fill="#787878"/></g></svg>